<svg width="124" height="204" viewBox="0 0 124 204" fill="none" xmlns="http://www.w3.org/2000/svg">
<path d="M10.4316 117.755C10.9752 117.508 11.4694 117.261 12.0129 117.064C17.8933 114.593 23.6749 111.974 29.3576 109.058C31.7295 107.823 33.9532 106.489 35.9792 104.759C41.7607 99.9167 48.0364 96.0129 55.0039 93.0974C55.251 92.9986 55.4981 92.8009 55.7452 92.5538C49.2718 92.0103 42.7984 93.0974 36.2263 91.9114C36.4239 91.6149 36.5227 91.4667 36.6216 91.3679C39.5371 88.7983 42.1066 85.9322 44.3797 82.7697C44.8245 82.1767 45.2692 81.6331 45.7139 81.0401C46.0598 80.546 46.5046 80.2001 47.147 80.1507C48.0858 80.0518 48.58 79.4589 48.9259 78.6682C49.173 78.0752 49.4695 77.5317 49.766 76.9881C50.0624 76.494 50.4578 76.2963 51.0013 76.5434C52.7309 77.3834 54.4604 78.1247 56.1405 79.0635C57.3759 79.7554 58.463 80.6448 59.6984 81.386C60.3408 81.7814 61.0326 82.1767 61.7244 82.4732C64.0963 83.3132 66.1223 82.2261 66.7647 79.8048C69.0378 71.3054 72.6451 63.399 76.8948 55.7397C78.6243 52.5771 80.5515 49.5628 82.3798 46.4497C83.4175 44.7201 84.6035 43.1389 86.1354 41.8047C87.2225 40.9152 87.8155 39.7787 88.2108 38.395C90.138 31.0816 93.1029 24.2129 97.0561 17.789C97.6985 16.7513 98.0938 15.7136 98.0938 14.4782C98.0938 13.7864 98.1926 13.0946 98.3409 12.4522C98.5385 11.5133 98.8844 11.2168 99.8233 11.1674C102.195 11.118 102.096 11.118 102.393 8.54839C102.541 7.46126 102.689 6.37413 102.887 5.33642C103.184 3.26099 104.518 1.92678 106.198 0.88907C107.334 0.19726 107.927 0.296091 108.817 1.3338C110.497 3.3104 111.633 5.58349 112.424 8.00483C113.709 11.7109 114.252 15.6147 114.598 19.5185C114.697 20.7045 114.747 21.8904 114.845 23.0764C115.241 28.9074 114.055 34.4912 111.732 39.8281C110.892 41.8047 109.904 43.6824 109.015 45.6096C105.358 53.516 100.713 60.8788 95.8207 68.044C94.0418 70.663 92.3617 73.4302 90.7804 76.1481C89.0508 79.1624 87.7661 82.3743 86.926 85.7346C86.8272 86.0805 86.7778 86.4264 86.7284 86.8217C86.5801 87.7112 86.7778 88.403 87.519 88.996C88.3096 89.6878 89.1003 90.3796 89.7921 91.1702C91.4722 93.048 91.6204 95.3211 91.2745 97.693C91.2251 97.9895 90.978 98.2366 90.8792 98.4836C90.731 98.4342 90.5827 98.4342 90.5333 98.3848C89.1003 96.6553 87.4202 96.0623 85.0977 96.6553C82.9234 97.1988 80.6009 97.3471 78.3772 97.5942C76.0547 97.8412 73.9299 98.6319 72.0521 99.9661C70.2732 101.251 68.5436 102.585 66.913 104.018C64.8869 105.748 62.9598 107.625 60.9832 109.454C56.5358 113.605 51.3472 116.718 45.961 119.534C44.6762 120.226 43.2926 120.473 41.909 120.572C37.7087 120.819 33.5578 120.572 29.3576 120.177C24.7126 119.732 20.0676 119.188 15.3731 118.645C13.7424 118.447 12.1118 118.25 10.5305 118.052C10.4811 117.953 10.4811 117.854 10.4316 117.755Z" fill="white"/>
<path d="M39.3882 166.084C39.3388 166.726 39.3388 167.22 39.3388 167.714C39.3388 170.383 39.24 173.101 39.3388 175.769C39.3882 177.696 38.1529 178.091 36.8187 177.943C35.781 177.844 35.2868 177.301 35.188 176.263C35.1386 175.917 35.188 175.522 35.188 175.176C35.188 167.517 35.188 159.808 35.188 152.149C35.188 151.852 35.188 151.506 35.188 151.21C35.2868 150.073 35.8304 149.48 36.9669 149.381C37.214 149.381 37.4117 149.381 37.6587 149.381C40.3765 149.381 43.0944 149.381 45.8616 149.381C47.8382 149.381 49.716 149.826 51.4949 150.716C56.98 153.384 57.6224 160.5 52.6809 164.156C51.6926 164.898 50.4572 165.392 49.2712 166.034C49.3701 166.281 49.5183 166.627 49.6666 166.924C51.149 169.394 52.6315 171.816 54.1139 174.286C54.3116 174.632 54.5586 174.978 54.7069 175.374C55.1022 176.411 54.6575 177.548 53.7186 178.091C52.7797 178.635 51.5938 178.437 50.9019 177.597C50.6549 177.301 50.5066 177.004 50.309 176.708C48.4312 173.595 46.504 170.482 44.6757 167.368C44.1815 166.578 43.6874 166.182 42.7485 166.281C41.6613 166.133 40.5742 166.084 39.3882 166.084ZM39.3882 162.328C39.7342 162.377 39.9812 162.427 40.1789 162.427C42.2049 162.427 44.2803 162.427 46.3063 162.427C46.9982 162.427 47.6405 162.279 48.3324 162.13C50.1113 161.686 51.2973 160.599 51.6926 158.77C52.1373 156.794 51.742 155.064 50.1113 153.73C49.0242 152.84 47.7394 152.346 46.3558 152.297C44.1321 152.198 41.9084 152.297 39.6847 152.297C39.6353 152.297 39.5365 152.396 39.3882 152.494C39.3882 155.706 39.3882 158.968 39.3882 162.328Z" fill="white"/>
<path d="M107.136 166.083C107.136 166.824 107.136 167.368 107.136 167.912C107.136 170.481 107.136 173.1 107.136 175.67C107.136 177.498 106.147 178.239 104.418 177.893C103.578 177.696 103.084 177.202 102.985 176.312C102.935 176.016 102.985 175.67 102.985 175.373C102.985 167.566 102.985 159.709 102.985 151.901C102.985 151.703 102.985 151.555 102.985 151.358C103.034 149.974 103.578 149.381 105.011 149.331C106.889 149.282 108.717 149.282 110.595 149.331C112.423 149.381 114.251 149.331 116.03 149.628C117.414 149.875 118.847 150.419 120.082 151.11C123.294 152.889 124.431 155.755 123.541 159.313C122.85 162.179 121.071 164.107 118.402 165.243C118.007 165.391 117.661 165.54 117.266 165.688C117.216 165.688 117.216 165.737 117.068 165.886C117.216 166.182 117.365 166.577 117.562 166.874C118.946 169.196 120.379 171.568 121.812 173.891C122.01 174.187 122.207 174.484 122.356 174.83C122.949 176.016 122.652 177.202 121.664 177.844C120.626 178.536 119.341 178.239 118.551 177.152C118.155 176.609 117.809 176.016 117.463 175.423C115.833 172.705 114.103 169.987 112.522 167.22C111.978 166.281 111.385 165.935 110.348 166.034C109.359 166.182 108.371 166.083 107.136 166.083ZM107.235 162.377C109.952 162.377 112.473 162.377 115.042 162.377C115.339 162.377 115.684 162.278 115.981 162.179C118.748 161.488 120.231 159.017 119.489 156.2C119.094 154.718 118.205 153.68 116.821 153.087C115.783 152.642 114.647 152.296 113.56 152.247C111.484 152.099 109.409 152.198 107.235 152.198C107.235 155.706 107.235 158.967 107.235 162.377Z" fill="white"/>
<path d="M78.4269 177.992C76.9939 178.041 75.2643 177.794 73.5842 177.251C68.0992 175.472 64.3436 170.53 63.9977 164.699C63.8001 161.784 64.2942 158.967 65.7272 156.398C68.2968 151.703 72.3983 149.529 77.6362 149.134C79.7611 148.985 81.8859 149.183 83.9614 149.875C89.397 151.604 93.202 156.398 93.6467 162.031C93.9926 166.676 92.8066 170.777 89.397 174.088C86.4321 176.905 82.8248 177.992 78.4269 177.992ZM78.8222 175.027C83.9614 175.027 87.5192 172.26 88.804 167.269C89.4464 164.749 89.4464 162.229 88.804 159.708C87.6675 155.261 84.8014 152.593 80.2552 152.049C75.1161 151.407 70.3722 153.581 68.7415 159.758C68.198 161.784 68.1486 163.859 68.4451 165.984C69.3345 171.617 73.1889 175.027 78.8222 175.027Z" fill="white"/>
<path d="M1.19091 163.514C1.19091 159.659 1.19091 155.756 1.19091 151.901C1.19091 151.506 1.19091 151.061 1.24032 150.666C1.38857 149.826 1.88272 149.282 2.72277 149.332C6.82421 149.381 10.9257 149.233 14.9777 149.628C18.4861 149.925 21.0557 152.099 22.8347 155.113C23.7735 156.744 24.3665 158.523 24.6136 160.351C25.0583 163.909 24.9101 167.467 23.4276 170.778C21.5499 174.978 18.3873 177.399 13.7423 177.647C10.1844 177.795 6.62655 177.745 3.11809 177.696C1.68506 177.696 1.19091 177.103 1.19091 175.522C1.14149 171.519 1.19091 167.516 1.19091 163.514ZM4.64996 174.682C4.99586 174.731 5.34176 174.83 5.63825 174.83C7.96076 174.83 10.2833 174.83 12.6058 174.731C16.4107 174.583 18.9309 172.606 20.2157 169.147C21.5499 165.589 21.6487 161.933 20.4627 158.325C19.178 154.421 16.1636 152.247 12.0128 152.198C9.93736 152.148 7.81251 152.198 5.73708 152.198C5.39118 152.198 5.04527 152.297 4.64996 152.346C4.64996 159.857 4.64996 167.269 4.64996 174.682Z" fill="white"/>
<path d="M98.3402 195.041C97.8955 196.474 97.4013 197.857 96.9566 199.29C96.8084 199.686 96.7589 200.081 96.5613 200.427C96.2648 200.97 95.7706 200.97 95.3753 200.427C95.2765 200.328 95.2271 200.18 95.1777 200.081C94.4364 197.956 93.6952 195.782 92.954 193.608C92.9046 193.41 93.0034 192.965 93.2011 192.817C93.547 192.57 93.8929 192.768 94.0905 193.163C94.2388 193.459 94.3376 193.756 94.387 194.052C94.7329 195.238 95.1282 196.375 95.4742 197.561C95.573 197.907 95.7212 198.203 95.9683 198.796C96.413 197.363 96.7589 196.177 97.2037 195.041C97.5002 194.25 97.3519 192.866 98.3896 192.817C99.4768 192.768 99.2791 194.201 99.5756 194.991C100.02 196.128 100.366 197.314 100.811 198.697C101.058 198.253 101.206 198.055 101.305 197.808C101.7 196.573 102.096 195.288 102.491 194.052C102.59 193.756 102.639 193.41 102.837 193.163C102.985 192.965 103.331 192.866 103.628 192.866C103.726 192.866 103.875 193.262 103.924 193.509C103.924 193.706 103.825 193.954 103.726 194.151C103.084 196.029 102.442 197.956 101.799 199.834C101.75 199.982 101.7 200.229 101.602 200.328C101.404 200.526 101.157 200.773 100.86 200.822C100.663 200.822 100.366 200.575 100.267 200.328C100.02 199.686 99.8227 199.043 99.625 198.401C99.2791 197.314 98.8838 196.177 98.5379 195.09C98.4885 195.041 98.3896 195.041 98.3402 195.041Z" fill="white"/>
<path d="M82.726 197.264C82.8248 198.845 83.4672 199.636 84.7026 199.833C85.938 200.031 86.8274 199.24 87.8652 198.746C88.3099 199.142 88.2111 199.487 87.9146 199.833C86.2839 201.612 82.8742 201.118 81.8859 198.944C81.2436 197.511 81.2436 196.028 81.9354 194.595C82.726 193.064 84.3567 192.372 85.938 192.816C87.3216 193.212 88.5076 194.941 88.4087 196.374C88.3593 197.017 88.0628 197.264 87.4698 197.264C86.4321 197.264 85.3944 197.264 84.3567 197.264C83.8131 197.264 83.319 197.264 82.726 197.264ZM87.0251 196.226C86.9757 194.595 86.1356 193.706 84.8014 193.706C83.4672 193.755 82.726 194.645 82.7754 196.226C84.2085 196.226 85.5921 196.226 87.0251 196.226Z" fill="white"/>
<path d="M120.133 196.276C121.22 197.313 122.159 198.203 123.048 199.092C123.197 199.241 123.394 199.389 123.542 199.586C123.888 199.932 124.234 200.328 123.79 200.723C123.394 201.118 123.048 200.723 122.752 200.426C122.011 199.636 121.22 198.845 120.479 198.055C120.182 197.758 119.886 197.511 119.392 197.017C119.342 198.104 119.342 198.845 119.342 199.636C119.342 200.13 119.441 200.772 118.749 200.772C118.057 200.772 118.156 200.13 118.156 199.636C118.156 196.819 118.156 194.003 118.156 191.186C118.156 191.038 118.156 190.889 118.156 190.791C118.156 190.395 118.304 190.049 118.749 190.049C119.243 190.049 119.342 190.395 119.342 190.791C119.342 191.828 119.342 192.866 119.342 193.904C119.342 194.348 119.392 194.793 119.441 195.485C120.38 194.744 121.072 194.151 121.813 193.558C122.109 193.311 122.455 193.014 122.801 192.817C122.949 192.718 123.345 192.767 123.394 192.866C123.493 193.064 123.493 193.41 123.394 193.607C123.197 193.904 122.851 194.101 122.604 194.348C121.813 194.892 121.072 195.485 120.133 196.276Z" fill="white"/>
<path d="M52.039 197.264C52.1872 199.932 53.8673 200.427 57.1287 198.796C57.6723 199.043 57.5241 199.389 57.2276 199.735C55.7945 201.415 52.3849 201.168 51.2978 199.191C50.4083 197.561 50.4083 195.88 51.3472 194.25C52.1872 192.866 53.8673 192.273 55.3992 192.817C56.7334 193.311 57.7711 194.942 57.6229 196.375C57.5735 196.968 57.277 197.165 56.7334 197.165C55.6463 197.165 54.5592 197.165 53.472 197.165C52.9779 197.264 52.5331 197.264 52.039 197.264ZM56.2887 196.226C56.2887 194.645 55.5475 193.756 54.2627 193.706C52.879 193.657 52.0884 194.546 52.039 196.226C53.472 196.226 54.8556 196.226 56.2887 196.226Z" fill="white"/>
<path d="M43.9346 200.328C42.9957 200.476 42.1062 200.822 41.2168 200.772C39.9814 200.723 39.1907 199.932 39.0919 198.845C38.9437 197.56 39.4378 196.77 40.6732 196.325C41.2662 196.127 41.9086 196.078 42.551 195.93C43.0451 195.831 43.5393 195.781 44.0334 195.732C44.1322 195.09 44.2805 194.497 43.7369 194.052C43.1439 193.607 42.4521 193.657 41.8097 193.904C41.4144 194.052 41.1179 194.348 40.7226 194.447C40.5744 194.497 40.2779 194.348 40.179 194.2C40.0802 194.101 40.1296 193.805 40.179 193.706C41.0191 192.619 42.2051 192.619 43.391 192.718C44.4781 192.817 45.1205 193.41 45.3182 194.348C45.3676 194.546 45.3676 194.793 45.3676 195.04C45.3676 196.572 45.417 198.104 45.3676 199.685C45.3676 200.031 45.1205 200.426 45.0217 200.772C44.577 200.624 44.1817 200.426 43.9346 200.328ZM43.8358 196.671C42.9463 196.819 42.0074 196.869 41.1673 197.116C40.4755 197.313 40.2285 197.956 40.2779 198.648C40.3273 199.339 40.8709 199.636 41.4638 199.784C42.9957 200.13 44.577 198.796 43.8358 196.671Z" fill="white"/>
<path d="M14.335 196.672C14.2362 197.709 13.9397 198.599 13.3961 199.439C12.0619 201.366 9.24527 201.366 7.96048 199.389C6.87335 197.709 6.82394 195.93 7.86165 194.25C9.14644 192.076 12.2596 192.125 13.495 194.3C13.9397 194.991 14.0385 195.881 14.335 196.672ZM8.30639 196.77C8.50405 197.462 8.60288 198.055 8.84995 198.648C9.19586 199.389 9.83825 199.834 10.6783 199.834C11.5184 199.834 12.1608 199.439 12.5561 198.648C13.1491 197.413 13.1985 196.079 12.5561 194.843C11.7654 193.311 9.73942 193.311 8.94878 194.843C8.55346 195.436 8.50405 196.128 8.30639 196.77Z" fill="white"/>
<path d="M111.832 196.968C111.585 197.66 111.437 198.599 110.942 199.34C109.658 201.416 106.643 201.366 105.408 199.241C104.568 197.858 104.469 196.425 105.062 194.942C105.606 193.509 106.693 192.718 108.126 192.718C109.658 192.669 110.794 193.46 111.338 194.942C111.585 195.486 111.634 196.128 111.832 196.968ZM105.803 196.771C106.001 197.413 106.1 198.055 106.347 198.599C106.693 199.39 107.335 199.785 108.175 199.785C109.015 199.785 109.658 199.39 110.053 198.648C110.646 197.413 110.695 196.079 110.053 194.843C109.262 193.311 107.236 193.311 106.446 194.843C106.1 195.387 106.001 196.128 105.803 196.771Z" fill="white"/>
<path d="M20.5119 200.179C20.0672 200.377 19.573 200.674 19.0789 200.772C17.547 201.118 16.0151 200.179 15.9163 198.598C15.7681 196.869 15.8175 195.139 15.8175 193.41C15.8175 193.014 15.9657 192.619 16.4599 192.767C16.6575 192.817 16.9046 193.212 16.954 193.459C17.0034 194.546 17.0034 195.633 17.0034 196.72C17.0034 197.165 17.0034 197.659 17.0529 198.055C17.2505 199.142 18.0412 199.834 19.0295 199.784C20.0672 199.735 20.8578 198.994 20.9072 197.808C20.9566 196.572 20.9072 195.337 20.9072 194.151C20.9072 193.854 20.8578 193.508 20.9566 193.212C21.0555 193.014 21.3025 192.767 21.5002 192.767C21.6979 192.767 21.8955 193.064 22.0438 193.212C22.0932 193.261 22.0932 193.41 22.0932 193.459C22.0932 195.633 22.0932 197.808 22.0932 199.982C22.0932 200.229 21.7473 200.723 21.6484 200.674C21.2531 200.674 20.9072 200.427 20.5119 200.179Z" fill="white"/>
<path d="M75.2148 193.361C75.5607 193.213 75.9066 192.966 76.3513 192.817C78.0808 192.274 79.7609 193.311 79.9092 195.14C80.0574 196.77 79.9586 198.401 79.9586 200.032C79.9586 200.279 79.5633 200.526 79.3656 200.773C79.168 200.526 78.8221 200.279 78.7726 199.982C78.6738 199.142 78.7232 198.253 78.7232 197.413C78.7232 196.869 78.7232 196.326 78.7232 195.782C78.6738 194.497 77.982 193.707 76.8455 193.707C75.7089 193.657 74.9677 194.399 74.8689 195.683C74.77 196.968 74.8689 198.204 74.8194 199.488C74.8194 199.933 75.0171 200.674 74.3253 200.724C73.5347 200.773 73.6829 200.032 73.6829 199.488C73.6829 197.611 73.6829 195.782 73.6829 193.904C73.6829 193.806 73.6829 193.707 73.6829 193.657C73.8311 193.361 73.9794 193.064 74.1276 192.768C74.4241 192.916 74.7206 193.114 75.2148 193.361Z" fill="white"/>
<path d="M65.727 198.302C66.2212 196.868 66.6659 195.386 67.2095 193.953C67.4071 193.459 67.3577 192.52 68.1978 192.816C68.8896 193.064 68.4448 193.755 68.2966 194.249C67.3083 197.165 66.2706 200.08 65.2329 202.996C65.0846 203.441 64.9858 204.231 64.2446 203.935C63.6516 203.688 63.9481 203.045 64.1951 202.601C65.0352 201.118 64.7881 199.685 64.1457 198.203C63.6022 196.868 63.1574 195.485 62.7127 194.101C62.5644 193.657 62.2185 193.064 62.9103 192.816C63.6022 192.569 63.701 193.311 63.8492 193.755C64.2446 194.892 64.6399 196.078 65.0352 197.264C65.1834 197.659 65.3317 198.005 65.4799 198.351C65.4799 198.302 65.5788 198.302 65.727 198.302Z" fill="white"/>
<path d="M7.66414 190.297C7.46648 190.692 7.31824 191.087 7.12058 191.482C6.5276 192.471 5.98403 193.459 5.34164 194.398C4.69924 195.287 4.45217 196.226 4.551 197.313C4.60042 198.055 4.551 198.746 4.551 199.488C4.551 199.735 4.60041 200.081 4.50158 200.278C4.35334 200.525 4.10627 200.723 3.80978 200.773C3.71095 200.822 3.36504 200.427 3.36504 200.229C3.31563 199.685 3.26621 199.142 3.31563 198.598C3.5627 196.572 3.01913 194.843 1.78376 193.261C1.38844 192.718 1.04254 192.125 0.696631 191.532C0.449556 191.087 -0.143424 190.494 0.449556 190.099C1.14137 189.654 1.38844 190.494 1.68493 190.988C2.2285 191.779 2.67323 192.619 3.16738 193.41C3.36504 193.706 3.5627 193.953 3.9086 194.349C4.69924 193.014 5.44047 191.828 6.18169 190.642C6.5276 190.198 6.8735 189.753 7.66414 190.297Z" fill="white"/>
<path d="M34.7927 201.02C34.0021 200.674 33.2115 200.427 32.4702 200.031C32.2726 199.932 32.0749 199.389 32.1737 199.142C32.3714 198.697 32.7667 198.944 33.1126 199.092C33.5574 199.34 34.0021 199.685 34.4468 199.735C34.9904 199.784 35.6328 199.735 36.1269 199.488C36.8188 199.191 36.8682 198.401 36.2752 197.906C35.8799 197.561 35.3363 197.363 34.8422 197.116C34.2986 196.819 33.6562 196.622 33.162 196.226C32.1737 195.535 32.1737 194.25 33.0632 193.41C34.0021 192.52 36.2258 192.421 37.2635 193.36C37.4612 193.558 37.6588 194.052 37.6094 194.25C37.4117 194.694 37.0164 194.447 36.6705 194.299C36.1269 194.102 35.5834 193.854 35.0398 193.756C34.4468 193.657 33.9033 193.904 33.755 194.546C33.5574 195.238 34.0515 195.535 34.5457 195.782C35.1386 196.078 35.7316 196.276 36.2752 196.523C37.6094 197.165 38.1035 197.808 37.9059 198.845C37.7576 199.883 36.8188 200.624 35.5834 200.822C35.3363 200.871 35.1386 200.871 34.8916 200.871C34.8422 200.921 34.8422 200.97 34.7927 201.02Z" fill="white"/>
<path d="M50.6063 190.642C49.9639 190.84 49.5192 190.988 48.9262 191.186C48.9262 191.581 48.8768 192.075 48.8768 192.47C49.025 192.569 49.1239 192.668 49.1733 192.717C49.5686 192.866 50.2604 192.619 50.2604 193.261C50.3098 194.101 49.371 193.607 48.8768 194.2C48.8768 195.139 48.8768 196.325 48.8768 197.511C48.8768 198.4 48.9262 199.339 48.8274 200.229C48.8274 200.476 48.4815 200.673 48.2838 200.871C48.0862 200.673 47.7403 200.525 47.6908 200.278C47.592 199.932 47.6414 199.586 47.6414 199.191C47.6414 197.511 47.6414 195.831 47.6414 194.299C47.1967 193.903 46.8508 193.607 46.5049 193.31C46.8014 193.063 47.0979 192.866 47.5426 192.52C47.6908 191.828 47.3944 190.593 48.5803 190.197C49.1733 189.901 49.9145 189.703 50.6063 190.642Z" fill="white"/>
<path d="M91.4225 192.372C91.9661 192.768 92.2626 192.965 92.5591 193.163C92.2626 193.459 91.9661 193.706 91.6696 194.003C91.5708 193.954 91.472 193.954 91.4225 193.904C91.4225 194.942 91.4225 195.98 91.4225 197.017C91.4225 198.055 91.4225 199.093 91.3731 200.13C91.3731 200.378 91.0272 200.575 90.8296 200.773C90.6319 200.575 90.3354 200.378 90.2366 200.13C90.1378 199.785 90.1872 199.389 90.1872 199.043C90.1872 197.363 90.1872 195.683 90.1872 194.25C89.9401 193.558 88.9518 193.904 89.1 193.163C89.1494 192.866 89.6436 192.718 90.0883 192.372C90.0883 192.026 90.1378 191.483 90.1872 190.939C90.2366 190.544 90.4342 190.198 90.879 190.297C91.0766 190.346 91.3731 190.692 91.3731 190.939C91.472 191.532 91.4225 192.026 91.4225 192.372Z" fill="white"/>
<path d="M59.5495 194.151C59.0554 193.805 58.5118 193.608 58.413 193.311C58.2647 192.57 59.1542 192.916 59.5495 192.323C59.5495 191.977 59.5001 191.483 59.5495 190.989C59.5989 190.742 59.846 190.396 60.0437 190.297C60.4884 190.149 60.6861 190.593 60.7355 190.939C60.7849 191.433 60.7849 191.928 60.8343 192.273C61.2296 192.669 61.5755 192.965 61.9214 193.262C61.6249 193.459 61.279 193.707 60.8343 194.052C60.8343 195.584 60.8343 197.314 60.8343 199.043C60.8343 199.439 60.8343 199.883 60.7355 200.229C60.6861 200.427 60.3402 200.674 60.1919 200.674C59.9942 200.674 59.7472 200.378 59.6978 200.18C59.5989 199.834 59.6483 199.439 59.6483 199.093C59.5495 197.462 59.5495 195.782 59.5495 194.151Z" fill="white"/>
<path d="M114.648 193.756C114.994 193.459 115.191 193.262 115.438 193.064C115.685 192.916 116.031 192.718 116.278 192.768C116.525 192.768 116.822 193.015 116.97 193.212C117.02 193.311 116.772 193.756 116.624 193.805C114.401 194.299 114.401 195.979 114.401 197.758C114.401 198.549 114.401 199.29 114.401 200.081C114.401 200.476 114.252 200.872 113.808 200.773C113.61 200.723 113.313 200.328 113.313 200.081C113.264 197.857 113.264 195.634 113.313 193.41C113.313 193.163 113.61 192.916 113.857 192.768C113.956 192.718 114.252 193.015 114.401 193.163C114.499 193.311 114.549 193.509 114.648 193.756Z" fill="white"/>
<path d="M25.5026 193.46C25.8979 193.262 26.392 192.916 26.9356 192.768C27.1333 192.718 27.4297 193.015 27.7262 193.114C27.578 193.361 27.4297 193.608 27.2815 193.855C27.2321 193.954 27.0344 193.954 26.8862 194.003C25.6014 194.349 25.2061 195.238 25.1567 196.474C25.1072 197.462 25.1567 198.45 25.1567 199.488C25.1567 199.785 25.1567 200.131 25.0578 200.427C25.0084 200.575 24.7613 200.773 24.6131 200.822C24.4648 200.822 24.1684 200.674 24.1189 200.476C24.0201 200.229 23.9707 199.933 23.9707 199.686C23.9707 197.759 23.9707 195.881 23.9707 193.954C23.9707 193.904 23.9707 193.855 23.9707 193.805C24.1189 193.46 24.2672 193.114 24.4154 192.768C24.7119 192.965 25.0578 193.163 25.5026 193.46Z" fill="white"/>
</svg>
